<svg xmlns="http://www.w3.org/2000/svg" xmlns:xlink="http://www.w3.org/1999/xlink" width="500" zoomAndPan="magnify" viewBox="0 0 375 374.999991" height="500" preserveAspectRatio="xMidYMid meet" version="1.0"><defs><clipPath id="96e40b4135"><path d="M 37.5 112.5 L 187.5 112.5 L 187.5 262.5 L 37.5 262.5 Z M 37.5 112.5 " clip-rule="nonzero"/></clipPath><clipPath id="8abd989cfd"><path d="M 112.5 112.5 L 187.5 187.5 L 112.5 262.5 L 37.5 187.5 L 112.5 112.5 " clip-rule="nonzero"/></clipPath><clipPath id="a36229eda8"><path d="M 187.5 112.5 L 337.5 112.5 L 337.5 262.5 L 187.5 262.5 Z M 187.5 112.5 " clip-rule="nonzero"/></clipPath><clipPath id="5f06420d2b"><path d="M 262.5 112.5 L 337.5 187.5 L 262.5 262.5 L 187.5 187.5 L 262.5 112.5 " clip-rule="nonzero"/></clipPath><clipPath id="424bdb191d"><path d="M 112.5 187.5 L 262.5 187.5 L 262.5 337.5 L 112.5 337.5 Z M 112.5 187.5 " clip-rule="nonzero"/></clipPath><clipPath id="cf18a61072"><path d="M 187.5 187.5 C 146.078125 187.5 112.5 221.078125 112.5 262.5 C 112.5 303.921875 146.078125 337.5 187.5 337.5 C 228.921875 337.5 262.5 303.921875 262.5 262.5 C 262.5 221.078125 228.921875 187.5 187.5 187.5 " clip-rule="nonzero"/></clipPath><clipPath id="20ba8f6466"><path d="M 112.5 112.5 L 262.5 112.5 L 262.5 243.75 L 112.5 243.75 Z M 112.5 112.5 " clip-rule="nonzero"/></clipPath><clipPath id="44a7ff15d9"><path d="M 187.5 243.75 L 262.5 112.5 L 112.5 112.5 L 187.5 243.75 " clip-rule="nonzero"/></clipPath></defs><rect x="-37.5" width="450" fill="#ffffff" y="-37.499999" height="449.999989" fill-opacity="1"/><rect x="-37.5" width="450" fill="#ffffff" y="-37.499999" height="449.999989" fill-opacity="1"/><rect x="-37.5" width="450" fill="#12181b" y="-37.499999" height="449.999989" fill-opacity="1"/><g clip-path="url(#96e40b4135)"><g clip-path="url(#8abd989cfd)"><path fill="#2a2f35" d="M 37.5 112.5 L 187.5 112.5 L 187.5 262.5 L 37.5 262.5 Z M 37.5 112.5 " fill-opacity="1" fill-rule="nonzero"/></g></g><g clip-path="url(#a36229eda8)"><g clip-path="url(#5f06420d2b)"><path fill="#2a2f35" d="M 187.5 112.5 L 337.5 112.5 L 337.5 262.5 L 187.5 262.5 Z M 187.5 112.5 " fill-opacity="1" fill-rule="nonzero"/></g></g><g clip-path="url(#424bdb191d)"><g clip-path="url(#cf18a61072)"><path fill="#12181b" d="M 112.5 187.5 L 262.5 187.5 L 262.5 337.5 L 112.5 337.5 Z M 112.5 187.5 " fill-opacity="1" fill-rule="nonzero"/></g></g><g clip-path="url(#20ba8f6466)"><g clip-path="url(#44a7ff15d9)"><path fill="#58a4b0" d="M 112.5 112.5 L 262.5 112.5 L 262.5 243.75 L 112.5 243.75 Z M 112.5 112.5 " fill-opacity="1" fill-rule="nonzero"/></g></g></svg>